<svg width="308" height="398" viewBox="0 0 308 398" fill="none" xmlns="http://www.w3.org/2000/svg">
<path d="M5 393V5H155.599C186.974 5 212.996 10.5429 233.667 21.6286C254.706 32.3448 270.209 46.7562 280.175 64.8629C290.51 82.9695 295.678 103.109 295.678 125.28C295.678 145.973 290.695 165.373 280.729 183.48C271.132 201.587 255.998 216.183 235.328 227.269C214.657 238.354 187.896 243.897 155.045 243.897H88.0508V393H5ZM204.876 393L126.808 223.389H215.949L299 393H204.876ZM88.0508 184.034H150.616C171.286 184.034 186.42 179.046 196.017 169.069C205.983 159.091 210.966 145.604 210.966 128.606C210.966 111.977 205.983 98.8591 196.017 89.2514C186.42 79.2743 171.286 74.2857 150.616 74.2857H88.0508V184.034Z" fill="white"/>
<path d="M290.678 125.28C290.678 103.921 285.71 84.6453 275.833 67.3418L275.813 67.3076L275.795 67.2734C266.378 50.1651 251.675 36.4123 231.397 26.084L231.304 26.0352C211.564 15.4485 186.416 10 155.599 10H10V388H83.0508V238.897H128.441L119.002 218.389H219.068L223.462 227.362C226.775 225.983 229.943 224.483 232.965 222.862C252.891 212.176 267.243 198.246 276.311 181.139L276.329 181.104L276.349 181.069C285.908 163.702 290.678 145.132 290.678 125.28ZM218.468 239.9C200.406 245.942 179.226 248.897 155.045 248.897H144.053L208.079 388H290.984L218.468 239.9ZM139.45 238.897H155.045C177.901 238.897 197.525 236.166 214.027 230.833L212.831 228.389H134.613L139.45 238.897ZM205.966 128.605C205.966 113.041 201.342 101.33 192.547 92.8516L192.479 92.7852L192.413 92.7178C184.139 84.1156 170.594 79.2862 150.616 79.2861H93.0508V179.034H150.616C170.594 179.034 184.139 174.205 192.413 165.603L192.446 165.568L192.479 165.535C201.322 156.683 205.966 144.569 205.966 128.605ZM215.966 128.605C215.966 146.638 210.645 161.5 199.555 172.603C188.634 183.907 171.936 189.034 150.616 189.034H83.0508V69.2861H150.616C171.923 69.2862 188.613 74.4072 199.534 85.6973C210.639 96.429 215.966 110.938 215.966 128.605ZM300.678 125.28C300.678 146.815 295.482 167.045 285.109 185.891C274.981 204.964 259.079 220.204 237.69 231.675C234.543 233.363 231.268 234.923 227.866 236.358L307.016 398H201.673L133.044 248.897H93.0508V398H0V0H155.599C187.497 0 214.372 5.62569 235.961 17.1855C257.723 28.2751 274.005 43.3185 284.518 62.3838L285.02 63.2725C295.477 81.951 300.678 102.656 300.678 125.28Z" fill="#0F172A"/>
</svg>
