<svg width="128" height="128" viewBox="0 0 128 128" fill="none" xmlns="http://www.w3.org/2000/svg">
<g clip-path="url(#clip0_147_2)">
<mask id="mask0_147_2" style="mask-type:alpha" maskUnits="userSpaceOnUse" x="0" y="0" width="128" height="128">
<circle cx="64" cy="64" r="64" fill="#F8F7F5"/>
</mask>
<g mask="url(#mask0_147_2)">
<circle cx="64" cy="64" r="64" fill="#F8F7F5"/>
<path d="M12 64.1888V13H31.8905C36.0343 13 39.4713 13.7313 42.2014 15.1938C44.9802 16.6076 47.0277 18.5089 48.344 20.8977C49.7091 23.2865 50.3916 25.9434 50.3916 28.8685C50.3916 31.5986 49.7334 34.158 48.4172 36.5468C47.1496 38.9356 45.1508 40.8613 42.4208 42.3239C39.6907 43.7864 36.1562 44.5177 31.8174 44.5177H22.969V64.1888H12ZM38.3988 64.1888L28.0879 41.812H39.8613L50.8303 64.1888H38.3988ZM22.969 36.62H31.2324C33.9624 36.62 35.9612 35.9618 37.2288 34.6455C38.545 33.3293 39.2032 31.5498 39.2032 29.3073C39.2032 27.1135 38.545 25.3828 37.2288 24.1153C35.9612 22.799 33.9624 22.1409 31.2324 22.1409H22.969V36.62Z" fill="#1C1C1A"/>
<path d="M64.236 64.1888L46.9808 -2L58.6811 -2L70.9636 51.9035L80.9089 13H93.0479L102.628 51.8303L110.964 13H122.811L109.136 64.1888H95.973L86.8321 28.4298L77.3988 64.1888H64.236Z" fill="#1C1C1A"/>
<path d="M12 64V115.189H31.8905C36.0343 115.189 39.4713 114.458 42.2014 112.995C44.9802 111.581 47.0277 109.68 48.344 107.291C49.7091 104.902 50.3916 102.245 50.3916 99.3203C50.3916 96.5902 49.7334 94.0308 48.4172 91.6419C47.1496 89.2531 45.1508 87.3275 42.4208 85.8649C39.6907 84.4024 36.1562 83.6711 31.8174 83.6711H22.969V64H12ZM38.3988 64L28.0879 86.3768H39.8613L50.8303 64H38.3988ZM22.969 91.5688H31.2324C33.9624 91.5688 35.9612 92.227 37.2288 93.5432C38.545 94.8595 39.2032 96.6389 39.2032 98.8815C39.2032 101.075 38.545 102.806 37.2288 104.074C35.9612 105.39 33.9624 106.048 31.2324 106.048H22.969V91.5688Z" fill="#4A6785"/>
<path d="M64.236 64L47.2993 129H58.9996L70.9636 76.2853L80.9089 115.189H93.0479L102.628 76.3584L110.964 115.189H122.811L109.136 64H95.973L86.8321 99.759L77.3988 64H64.236Z" fill="#4A6785"/>
</g>
</g>
<defs>
<clipPath id="clip0_147_2">
<rect width="128" height="128" fill="white"/>
</clipPath>
</defs>
</svg>
