<svg width="16" height="20" viewBox="0 0 16 20" fill="none" xmlns="http://www.w3.org/2000/svg">
<path d="M8 10.999C7.73478 10.999 7.48043 11.1043 7.29289 11.2919C7.10536 11.4794 7 11.7337 7 11.999V14.999C7 15.2642 7.10536 15.5185 7.29289 15.7061C7.48043 15.8936 7.73478 15.999 8 15.999C8.26522 15.999 8.51957 15.8936 8.70711 15.7061C8.89464 15.5185 9 15.2642 9 14.999V11.999C9 11.7337 8.89464 11.4794 8.70711 11.2919C8.51957 11.1043 8.26522 10.999 8 10.999Z" fill="currentColor"/>
<path d="M15.1213 7.87762C14.5587 7.31501 13.7956 6.99894 13 6.99894C12.2044 6.99894 5 6.99894 5 6.99894V4.99894C4.99854 4.40513 5.17334 3.82424 5.50226 3.32985C5.83118 2.83545 6.29942 2.44979 6.84768 2.2217C7.21463 2.06905 7.60638 1.99157 8 1.99157V0C7.3454 4.44388e-06 6.6939 0.128562 6.08346 0.381899C5.17078 0.760665 4.3908 1.40137 3.84201 2.22312C3.29321 3.04486 3.00021 4.01079 3 4.99894V6.99894C2.20435 6.99894 1.44129 7.31501 0.87868 7.87762C0.316071 8.44023 0 9.20329 0 9.99894V16.9989C0 17.7946 0.316071 18.5577 0.87868 19.1203C1.44129 19.6829 2.20435 19.9989 3 19.9989H13C13.7956 19.9989 14.5587 19.6829 15.1213 19.1203C15.6839 18.5577 16 17.7946 16 16.9989V9.99894C16 9.20329 15.6839 8.44023 15.1213 7.87762ZM14 16.9989C14 17.2642 13.8946 17.5185 13.7071 17.7061C13.5196 17.8936 13.2652 17.9989 13 17.9989H3C2.73478 17.9989 2.48043 17.8936 2.29289 17.7061C2.10536 17.5185 2 17.2642 2 16.9989V9.99894C2 9.73373 2.10536 9.47937 2.29289 9.29184C2.48043 9.1043 2.73478 8.99894 3 8.99894H13C13.2652 8.99894 13.5196 9.1043 13.7071 9.29184C13.8946 9.47937 14 9.73373 14 9.99894V16.9989Z" fill="currentColor"/>
<path d="M8 0V1.99157C8.39362 1.99157 8.78537 2.06905 9.15232 2.2217C9.70058 2.44979 10.1688 2.83545 10.4977 3.32985C10.8267 3.82424 11.0015 4.40513 11 4.99894V5V6.99894H13V4.99894C12.9998 4.01079 12.7068 3.04486 12.158 2.22312C11.6092 1.40137 10.8292 0.760665 9.91654 0.381899C9.3061 0.128561 8.6546 4.44388e-06 8 0Z" fill="currentColor"/>
</svg>
