<svg width="322" height="409" viewBox="0 0 322 409" fill="none" xmlns="http://www.w3.org/2000/svg">
<path d="M10.5 398.5V10.5H161.099C192.474 10.5 218.496 16.0429 239.167 27.1286C260.206 37.8448 275.709 52.2562 285.675 70.3629C296.01 88.4695 301.178 108.609 301.178 130.78C301.178 151.473 296.195 170.873 286.229 188.98C276.632 207.087 261.498 221.683 240.828 232.769C220.157 243.854 193.396 249.397 160.545 249.397H93.5508V398.5H10.5ZM210.376 398.5L132.308 228.889H221.449L304.5 398.5H210.376ZM93.5508 189.534H156.116C176.786 189.534 191.92 184.546 201.517 174.569C211.483 164.591 216.466 151.104 216.466 134.106C216.466 117.477 211.483 104.359 201.517 94.7514C191.92 84.7743 176.786 79.7857 156.116 79.7857H93.5508V189.534Z" fill="#BE123C"/>
<path d="M290.678 130.78C290.678 110.315 285.928 91.9885 276.556 75.5684L276.516 75.4971L276.477 75.4258C267.664 59.4155 253.842 46.3871 234.401 36.4854L234.302 36.4346L234.204 36.3818C215.488 26.3441 191.303 21 161.099 21H21V388H83.0508V238.897H125.355L115.916 218.389H227.999L231.569 225.683C233.036 224.986 234.469 224.265 235.865 223.516C254.973 213.268 268.466 200.071 276.951 184.062L276.99 183.989L277.03 183.917C286.142 167.363 290.678 149.705 290.678 130.78ZM221.109 252.072C203.4 257.361 183.148 259.897 160.545 259.897H158.14L217.103 388H287.668L221.109 252.072ZM205.966 134.105C205.966 119.711 201.737 109.548 194.229 102.311L194.087 102.173L193.949 102.03C187.129 94.9404 175.333 90.2862 156.116 90.2861H104.051V179.034H156.116C175.333 179.034 187.129 174.379 193.949 167.289L194.019 167.218L194.088 167.148C201.694 159.534 205.966 148.932 205.966 134.105ZM226.966 134.105C226.966 153.276 221.271 169.65 208.945 181.989C196.572 194.75 178.157 200.034 156.116 200.034H83.0508V69.2861H156.116C178.146 69.2862 196.554 74.5646 208.927 87.3115C221.266 99.2766 226.966 115.305 226.966 134.105ZM311.678 130.78C311.678 153.242 306.248 174.383 295.428 194.043C284.715 214.179 267.97 230.126 245.79 242.021C244.159 242.896 242.497 243.736 240.805 244.544L321.333 409H203.649L135.021 259.897H104.051V409H0V0H161.099C193.595 0 221.42 5.72432 244.026 17.8203C266.617 29.3459 283.767 45.123 294.871 65.2959C306.116 85.0533 311.678 106.958 311.678 130.78Z" fill="#F1F5F9"/>
</svg>
