<svg width="20" height="20" viewBox="0 0 20 20" fill="none" xmlns="http://www.w3.org/2000/svg">
<path d="M19.65 0.241127C19.541 0.147583 19.4131 0.0786197 19.2751 0.0389308C19.137 -0.000758074 18.992 -0.0102412 18.85 0.0111269L5.85 2.01113C5.61326 2.04704 5.39727 2.16672 5.24129 2.34839C5.0853 2.53006 4.99969 2.76168 5 3.00113V13.3511C4.53277 13.1229 4.01999 13.0033 3.5 13.0011C2.80777 13.0011 2.13108 13.2064 1.55551 13.591C0.979934 13.9756 0.53133 14.5222 0.266423 15.1617C0.00151649 15.8013 -0.0677952 16.505 0.0672531 17.1839C0.202301 17.8629 0.535644 18.4865 1.02513 18.976C1.51461 19.4655 2.13825 19.7988 2.81719 19.9339C3.49612 20.0689 4.19985 19.9996 4.83939 19.7347C5.47894 19.4698 6.02556 19.0212 6.41015 18.4456C6.79473 17.8701 7 17.1934 7 16.5011V8.86113L18 7.17113V11.3511C17.5328 11.1229 17.02 11.0033 16.5 11.0011C15.8078 11.0011 15.1311 11.2064 14.5555 11.591C13.9799 11.9756 13.5313 12.5222 13.2664 13.1617C13.0015 13.8013 12.9322 14.505 13.0673 15.1839C13.2023 15.8629 13.5356 16.4865 14.0251 16.976C14.5146 17.4655 15.1383 17.7988 15.8172 17.9339C16.4961 18.0689 17.1999 17.9996 17.8394 17.7347C18.4789 17.4698 19.0256 17.0212 19.4101 16.4456C19.7947 15.8701 20 15.1934 20 14.5011V1.00113C20 0.856686 19.9687 0.713958 19.9083 0.582761C19.8479 0.451564 19.7598 0.335013 19.65 0.241127V0.241127ZM3.5 18.0011C3.20333 18.0011 2.91332 17.9132 2.66665 17.7483C2.41997 17.5835 2.22771 17.3492 2.11418 17.0752C2.00065 16.8011 1.97095 16.4995 2.02882 16.2085C2.0867 15.9175 2.22956 15.6502 2.43934 15.4405C2.64912 15.2307 2.91639 15.0878 3.20737 15.0299C3.49834 14.9721 3.79994 15.0018 4.07403 15.1153C4.34812 15.2288 4.58238 15.4211 4.74721 15.6678C4.91203 15.9144 5 16.2045 5 16.5011C5 16.899 4.84197 17.2805 4.56066 17.5618C4.27936 17.8431 3.89783 18.0011 3.5 18.0011ZM16.5 16.0011C16.2033 16.0011 15.9133 15.9132 15.6666 15.7483C15.42 15.5835 15.2277 15.3492 15.1142 15.0752C15.0007 14.8011 14.9709 14.4995 15.0288 14.2085C15.0867 13.9175 15.2296 13.6502 15.4393 13.4405C15.6491 13.2307 15.9164 13.0878 16.2074 13.0299C16.4983 12.9721 16.7999 13.0018 17.074 13.1153C17.3481 13.2288 17.5824 13.4211 17.7472 13.6678C17.912 13.9144 18 14.2045 18 14.5011C18 14.899 17.842 15.2805 17.5607 15.5618C17.2794 15.8431 16.8978 16.0011 16.5 16.0011ZM18 5.14113L7 6.83113V3.83113L18 2.17113V5.14113Z" fill="#4A6785"/>
</svg>
